# AST/ASF file generated using VICON BodyLanguage
# -----------------------------------------------
:version 1.10
:name VICON
:units
  mass 1.0
  length 0.45
  angle deg
:documentation
   .ast/.asf automatically generated from VICON data using
   VICON BodyBuilder and BodyLanguage model FoxedUp or BRILLIANT.MOD
:root
   order TX TY TZ RX RY RZ
   axis XYZ
   position 0 0 0  
   orientation 0 0 0 
:bonedata
  begin
     id 1 
     name lhipjoint
     direction 0.57768 -0.667037 0.470475 
     length 2.36008 
     axis 0 0 0  XYZ
  end
  begin
     id 2 
     name lfemur
     direction 0.34202 -0.939693 0  
     length 6.97235  
     axis 0 0 20  XYZ
    dof rx ry rz
    limits (-160.0 20.0)
           (-70.0 70.0)
           (-60.0 70.0)
  end
  begin
     id 3 
     name ltibia
     direction 0.34202 -0.939693 0   
     length 6.93428   
     axis 0 0 20   XYZ
    dof rx
    limits (-10.0 170.0)
  end
  begin
     id 4 
     name lfoot
     direction 0.133018 -0.365463 0.921272   
     length 2.18603   
     axis -90 7.62852e-016 20   XYZ
    dof rx rz
    limits (-45.0 90.0)
           (-70.0 20.0)
  end
  begin
     id 5 
     name ltoes
     direction 1.53519e-011 -4.22055e-011 1   
     length 1.07924   
     axis -90 7.62852e-016 20   XYZ
    dof rx
    limits (-90.0 20.0)
  end
  begin
     id 6 
     name rhipjoint
     direction -0.577712 -0.667019 0.470462   
     length 2.36015  
     axis 0 0 0  XYZ 
  end
  begin
     id 7 
     name rfemur
     direction -0.34202 -0.939693 0   
     length 6.71195   
     axis 0 0 -20   XYZ
    dof rx ry rz
    limits (-160.0 20.0)
           (-70.0 70.0)
           (-70.0 60.0)
  end
  begin
     id 8 
     name rtibia
     direction -0.34202 -0.939693 0   
     length 7.04592   
     axis 0 0 -20   XYZ
    dof rx
    limits (-10.0 170.0)
 end
 begin
     id 9 
     name rfoot
     direction -0.113796 -0.312651 0.943027   
     length 2.03846  
     axis -90 -7.62852e-016 -20   XYZ
    dof rx rz
    limits (-45.0 90.0)
           (-20.0 70.0)
  end
  begin
     id 10 
     name rtoes
     direction -1.53586e-011 -4.218e-011 1   
     length 1.01562   
     axis -90 -7.62852e-016 -20   XYZ
    dof rx
    limits (-90.0 20.0)
  end
  begin
     id 11 
     name lowerback
     direction -0.0417299 0.991937 -0.119667   
     length 2.05257   
     axis 0 0 0   XYZ
    dof rx ry rz
    limits (-20.0 45.0)
           (-30.0 30.0)
           (-30.0 30.0)
  end
  begin
     id 12 
     name upperback
     direction -0.00017666 0.999999 0.00105178   
     length 2.05693   
     axis 0 0 0   XYZ
    dof rx ry rz
    limits (-20.0 45.0)
           (-30.0 30.0)
           (-30.0 30.0)
  end
  begin
     id 13 
     name thorax
     direction 0.0185169 0.998203 0.0569866   
     length 2.0932   
     axis 0 0 0   XYZ
    dof rx ry rz
    limits (-20.0 45.0)
           (-30.0 30.0)
           (-30.0 30.0)
  end
  begin
     id 14 
     name lowerneck
     direction -0.0212406 0.982645 0.184277   
     length 1.72509   
     axis 0 0 0   XYZ
    dof rx ry rz
    limits (-20.0 45.0)
           (-30.0 30.0)
           (-30.0 30.0)
  end
  begin
     id 15 
     name upperneck
     direction 0.00528579 0.965323 -0.261004   
     length 1.76294   
     axis 0 0 0   XYZ
    dof rx ry rz
    limits (-20.0 45.0)
           (-30.0 30.0)
           (-30.0 30.0)
  end
  begin
     id 16
     name head
     direction 0.00695421 0.994078 -0.108445  
     length 1.78678  
     axis 0 0 0   XYZ
    dof rx ry rz
    limits (-20.0 45.0)
           (-30.0 30.0)
           (-30.0 30.0)
  end
  begin
     id 17 
     name lclavicle
     direction 0.97277 0.211305 -0.095232  
     length 3.84823  
     axis 0 0 0   XYZ
    dof ry rz
    limits (-20.0 10.0)
           (0.0 20.0)
  end
  begin
     id 18 
     name lhumerus
     direction 1 -4.48957e-011 -1.98313e-027   
     length 4.97185   
     axis 180 -30 -90   XYZ
    dof rx ry rz
    limits (-60.0 90.0)
           (-90.0 90.0)
           (-90.0 90.0)
  end
  begin
     id 19
     name lradius
     direction 1 -4.4898e-011 7.31063e-027   
     length 3.35811   
     axis 180 -30 -90   XYZ
    dof rx
    limits (-10.0 170.0)
  end
  begin
     id 20
     name lwrist
     direction 1 -4.48938e-011 9.95048e-027   
     length 1.67905   
     axis -8.75986e-015 90 90   XYZ
    dof ry
    limits (-180.0 0.0)
 end
  begin
     id 21 
     name lhand
     direction 1 -4.4901e-011 1.9901e-026   
     length 0.622776   
     axis -1.26985e-014 90 90   XYZ
    dof rx rz
    limits (-90.0 90.0)
           (-45.0 45.0)
  end
  begin
     id 22 
     name lfingers
     direction 1 -4.48961e-011 3.98019e-026   
     length 0.502098   
     axis -2.5397e-014 90 90   XYZ
    dof rx
    limits (0.0 90.0)
  end
  begin
     id 23
     name lthumb
     direction 0.707107 -6.34933e-011 0.707107   
     length 0.720915   
     axis -90 45 2.85299e-015   XYZ
    dof rx rz
    limits (-45.0 45.0)
           (-45.0 45.0)
  end
  begin
     id 24 
     name rclavicle
     direction -0.990867 0.133739 -0.0172226   
     length 3.78845  
     axis 0 0 0   XYZ 
    dof ry rz
    limits (-10.0 20.0)
           (-20.0 0.0)
  end
  begin
     id 25 
     name rhumerus
     direction -1 -4.48972e-011 -1.99267e-027  
     length 4.96493   
     axis 180 30 90   XYZ
    dof rx ry rz
    limits (-90.0 60.0)
           (-90.0 90.0)
           (-90.0 90.0)
  end
  begin
     id 26 
     name rradius
     direction -1 -4.48969e-011 8.96093e-027   
     length 3.34929   
     axis 180 30 90   XYZ
    dof rx
    limits (-10.0 170.0)
  end
  begin
     id 27 
     name rwrist
     direction -1 -4.48953e-011 9.95048e-027   
     length 1.67464   
     axis -8.75986e-015 -90 -90   XYZ
    dof ry
    limits (-180.0 0.0)
  end
  begin
     id 28
     name rhand
     direction -1 -4.49001e-011 1.9901e-026   
     length 0.638041   
     axis -1.26985e-014 -90 -90   XYZ
    dof rx rz
    limits (-90.0 90.0)
           (-45.0 45.0)
  end
  begin
     id 29
     name rfingers
     direction -1 -4.48967e-011 3.98019e-026   
     length 0.514405   
     axis -2.5397e-014 -90 -90   XYZ
    dof rx
    limits (0.0 90.0)
  end
  begin
     id 30
     name rthumb
     direction -0.707107 -6.34904e-011 0.707107   
     length 0.738586   
     axis -90 -45 -2.85299e-015   XYZ
    dof rx rz
    limits (-45.0 45.0)
           (-45.0 45.0)
  end
:hierarchy
  begin
    root lhipjoint rhipjoint lowerback
    lhipjoint lfemur
    lfemur ltibia
    ltibia lfoot
    lfoot ltoes
    rhipjoint rfemur
    rfemur rtibia
    rtibia rfoot
    rfoot rtoes
    lowerback upperback
    upperback thorax
    thorax lowerneck lclavicle rclavicle
    lowerneck upperneck
    upperneck head
    lclavicle lhumerus
    lhumerus lradius
    lradius lwrist
    lwrist lhand lthumb
    lhand lfingers
    rclavicle rhumerus
    rhumerus rradius
    rradius rwrist
    rwrist rhand rthumb
    rhand rfingers
  end

#!OML:ASF E:\Mandelcareful walks\Project 1\Capture day 1\Session 1\Subject1.ASF
:FULLY-SPECIFIED
:DEGREES
249
root -15.4547 15.1441 -0.334346 -349.668 59.6678 -365.587
lowerback 37.2005 1.14937 -5.37697
upperback 7.88423 -0.21417 -2.18747
thorax -9.56603 0.254976 0.520425
lowerneck -27.3563 16.2286 9.49715
upperneck 20.5722 24.3789 -17.3923
head 15.3017 9.1264 -2.82474
rclavicle 1.43125e-014 6.44062e-014
rhumerus -20.8816 14.7682 -92.0805
rradius 39.1443
rwrist -58.1248
rhand 11.5785 -40.0351
rfingers 7.12502
rthumb 36.6219 -66.1963
lclavicle 1.43125e-014 6.44062e-014
lhumerus 62.7213 -84.6881 28.4251
lradius 57.0382
lwrist -0.272532
lhand -20.0244 -13.1046
lfingers 7.12502
lthumb 6.31625 16.7812
rfemur -42.7476 -6.40711 7.66467
rtibia 62.2673
rfoot -16.7539 -15.0508
rtoes -18.0226
lfemur -53.2787 11.5946 -19.0913
ltibia 64.5746
lfoot -23.1182 5.52563
ltoes 2.50288
250
root -15.4208 15.1665 -0.27415 -349.157 61.4424 -365.31
lowerback 36.7419 0.657945 -4.99044
upperback 7.84587 -0.589126 -1.68643
thorax -9.43934 0.0704798 1.00676
lowerneck -27.5313 15.9285 9.80083
upperneck 20.5221 23.8937 -17.6606
head 15.3367 8.90912 -3.09954
rclavicle 6.52014e-014 1.82882e-014
rhumerus -20.6633 15.4169 -91.7565
rradius 40.1925
rwrist -57.3431
rhand 11.8883 -40.5309
rfingers 7.12502
rthumb 36.915 -66.6173
lclavicle 6.52014e-014 1.82882e-014
lhumerus 69.3738 -84.6599 21.256
lradius 57.8302
lwrist 0.690847
lhand -23.3985 -12.6223
lfingers 7.12502
lthumb 3.0583 17.3355
rfemur -43.7046 -5.65472 7.62135
rtibia 61.9038
rfoot -17.5266 -13.9175
rtoes -17.2877
lfemur -53.4343 10.4992 -19.1038
ltibia 64.111
lfoot -22.7057 4.93826
ltoes 2.43871
251
root -15.3875 15.1901 -0.204329 -348.461 63.2757 -364.793
lowerback 36.2128 0.200148 -4.60869
upperback 7.88239 -0.916469 -1.17001
thorax -9.19993 -0.0938001 1.48767
lowerneck -27.8604 15.5749 9.98163
upperneck 20.438 23.3968 -18.0261
head 15.3854 8.65978 -3.39366
rclavicle -3.49861e-014 -3.18055e-014
rhumerus -20.2657 15.8878 -91.3136
rradius 41.1034
rwrist -56.305
rhand 11.777 -41.0512
rfingers 7.12502
rthumb 36.8097 -67.1646
lclavicle -3.49861e-014 -3.18055e-014
lhumerus 68.6119 -84.3314 21.6362
lradius 58.5643
lwrist 0.652725
lhand -22.3677 -12.6631
lfingers 7.12502
lthumb 4.05374 17.2781
rfemur -44.5871 -4.90804 7.40744
rtibia 61.3595
rfoot -17.9058 -12.1482
rtoes -16.6728
lfemur -53.4944 9.43282 -19.2138
ltibia 63.6428
lfoot -22.3186 4.31256
ltoes 2.31305
252
root -15.3523 15.2141 -0.128725 -347.746 65.2583 -364.071
lowerback 36.1051 -0.152152 -4.31527
upperback 7.73005 -1.16256 -0.473021
thorax -9.31724 -0.211887 2.17295
lowerneck -28.1614 15.1453 9.9889
upperneck 20.5577 22.8956 -18.3236
head 15.4801 8.39471 -3.64706
rclavicle -2.70347e-014 4.77083e-015
rhumerus -20.197 16.5938 -90.7273
rradius 42.0567
rwrist -55.7162
rhand 11.0484 -41.5087
rfingers 7.12502
rthumb 36.12 -67.7956
lclavicle -2.70347e-014 4.77083e-015
lhumerus 66.7075 -84.4478 23.4691
lradius 59.253
lwrist 1.1577
lhand -22.2933 -12.6674
lfingers 7.12502
lthumb 4.12553 17.2724
rfemur -45.2537 -4.27625 7.08487
rtibia 60.7631
rfoot -18.4076 -10.3636
rtoes -18.1655
lfemur -53.296 8.2078 -19.3147
ltibia 63.2612
lfoot -22.1154 3.64249
ltoes 2.61103
253
root -15.3164 15.2361 -0.0486078 -347.126 67.4284 -363.265
lowerback 36.0823 -0.664605 -3.6947
upperback 7.69025 -1.4909 0.0894172
thorax -9.34481 -0.368781 2.57327
lowerneck -28.3502 14.8861 10.0206
upperneck 20.5178 22.617 -18.6652
head 15.5282 8.23703 -3.85986
rclavicle -2.94201e-014 6.32135e-014
rhumerus -20.1095 17.2334 -90.2664
rradius 43.0997
rwrist -55.322
rhand 9.14204 -42.7598
rfingers 7.12502
rthumb 34.3121 -69.4737
lclavicle -2.94201e-014 6.32135e-014
lhumerus 66.5771 -84.3346 23.4663
lradius 59.7226
lwrist 1.5798
lhand -22.7193 -12.4485
lfingers 7.12502
lthumb 3.71414 17.4989
rfemur -45.5527 -3.78081 6.76451
rtibia 60.1219
rfoot -19.1049 -8.684
rtoes -19.0229
lfemur -52.907 6.83001 -19.3237
ltibia 62.8713
lfoot -21.9174 2.96432
ltoes 2.38857
254
root -15.317 15.2253 0.0549329 -346.182 67.1952 -363.448
lowerback 34.2026 0.0508727 -4.1956
upperback 7.66444 -0.705673 0.472864
thorax -8.83592 -0.033725 2.95741
lowerneck -28.4867 14.6934 10.0831
upperneck 20.3786 22.4156 -19.0449
head 15.5449 8.11968 -4.07047
rclavicle -5.04913e-014 -3.97569e-015
rhumerus -20.0862 17.3716 -89.9339
rradius 44.1504
rwrist -54.907
rhand 7.75479 -43.6198
rfingers 7.12502
rthumb 32.9939 -70.6213
lclavicle -5.04913e-014 -3.97569e-015
lhumerus 66.2064 -84.1525 23.6211
lradius 60.0648
lwrist 1.50735
lhand -23.0768 -12.3786
lfingers 7.12502
lthumb 3.36896 17.5746
rfemur -48.4145 -1.52628 6.68137
rtibia 59.6909
rfoot -18.8769 -7.58766
rtoes -19.2597
lfemur -54.0699 8.10432 -19.4147
ltibia 62.7422
lfoot -21.6492 2.09492
ltoes 1.67258
255
root -15.2912 15.2345 0.153966 -344.587 69.1563 -361.826
lowerback 33.804 -0.341377 -3.6337
upperback 7.60426 -0.949878 0.770825
thorax -8.74755 -0.15382 3.06387
lowerneck -28.4789 14.6107 10.094
upperneck 20.2982 22.416 -19.3936
head 15.5818 8.09274 -4.21009
rclavicle -5.64548e-014 -2.66371e-014
rhumerus -20.192 17.3172 -89.6499
rradius 45.0412
rwrist -54.7014
rhand 7.40691 -43.3226
rfingers 7.12502
rthumb 32.6629 -70.3934
lclavicle -5.64548e-014 -2.66371e-014
lhumerus 62.648 -83.9848 27.0533
lradius 60.1251
lwrist 1.11944
lhand -22.1767 -13.2419
lfingers 7.12502
lthumb 4.23814 16.6957
rfemur -49.0766 -1.25489 6.21781
rtibia 59.2774
rfoot -19.0532 -7.40394
rtoes -18.7077
lfemur -54.0103 7.07279 -19.717
ltibia 62.4627
lfoot -21.5206 1.3907
ltoes 0.811048
256
root -15.2642 15.2362 0.267357 -342.879 71.0962 -359.798
lowerback 33.7913 -0.624431 -3.19222
upperback 7.48586 -1.1072 1.10269
thorax -8.87128 -0.225053 3.23923
lowerneck -28.2179 14.6815 10.1561
upperneck 20.1863 22.6568 -19.7981
head 15.6163 8.18423 -4.31769
rclavicle 5.32743e-014 9.93923e-015
rhumerus -20.4632 17.342 -89.3375
rradius 45.7518
rwrist -54.5263
rhand 6.28728 -43.8216
rfingers 7.12502
rthumb 31.597 -71.1076
lclavicle 5.32743e-014 9.93923e-015
lhumerus 56.1232 -83.776 33.6309
lradius 60.0953
lwrist 0.384715
lhand -20.8601 -13.9941
lfingers 7.12502
lthumb 5.50945 15.9143
rfemur -49.1212 -1.04941 5.80511
rtibia 59.0191
rfoot -19.5754 -7.70675
rtoes -17.1557
lfemur -53.6426 6.28179 -20.0379
ltibia 62.2921
lfoot -21.057 0.29513
ltoes 1.96819
257
root -15.2344 15.2316 0.391391 -340.736 72.9713 -357.278
lowerback 33.7422 -0.840143 -2.76971
upperback 7.37118 -1.18885 1.40161
thorax -8.98187 -0.261303 3.36168
lowerneck -27.7163 14.9152 10.2055
upperneck 19.8744 23.1327 -20.265
head 15.5683 8.39892 -4.37933
rclavicle 4.12478e-015 3.28989e-014
rhumerus -20.8584 17.4331 -89.0316
rradius 46.3725
rwrist -54.155
rhand 5.89053 -44.0858
rfingers 7.12502
rthumb 31.219 -71.4453
lclavicle 4.12478e-015 3.28989e-014
lhumerus 55.983 -84.2497 33.7535
lradius 60.4998
lwrist 2.80731
lhand -23.4983 -13.8575
lfingers 7.12502
lthumb 2.96189 16.1017
rfemur -48.8106 -1.09977 5.51576
rtibia 58.8912
rfoot -20.6059 -8.11113
rtoes -15.6032
lfemur -53.2407 5.73444 -20.3877
ltibia 62.1105
lfoot -20.9286 -0.984206
ltoes 1.07771
258
root -15.199 15.2191 0.521405 -338.214 74.5728 -354.502
lowerback 33.312 -0.99341 -2.14599
upperback 7.29697 -1.15352 1.46791
thorax -8.91598 -0.252146 3.08183
lowerneck -26.8461 15.3318 10.5024
upperneck 19.2708 23.7989 -20.9327
head 15.4318 8.73956 -4.50405
rclavicle 4.74101e-014 -1.93815e-014
rhumerus -21.3417 17.3313 -88.9263
rradius 46.765
rwrist -53.7557
rhand 5.14483 -44.7011
rfingers 7.12502
rthumb 30.5081 -72.1951
lclavicle 4.74101e-014 -1.93815e-014
lhumerus 49.6388 -84.3586 40.1755
lradius 60.717
lwrist 2.61972
lhand -22.1373 -13.4694
lfingers 7.12502
lthumb 4.27622 16.4675
rfemur -48.5284 -1.35846 5.45911
rtibia 59.0526
rfoot -21.9661 -8.60191
rtoes -12.9302
lfemur -53.0264 5.52096 -20.719
ltibia 62.0907
lfoot -20.8501 -2.37401
ltoes 0.448174
259
root -15.1628 15.1935 0.653521 -335.115 76.1734 -351.061
lowerback 32.8614 -1.243 -1.23161
upperback 7.25002 -1.17193 1.31682
thorax -8.81417 -0.270813 2.43409
lowerneck -25.6598 16.1703 11.1336
upperneck 18.6282 25.0974 -21.9008
head 15.4651 9.36665 -4.61618
rclavicle 1.31198e-014 -1.09332e-014
rhumerus -21.7405 17.0576 -89.0343
rradius 46.6286
rwrist -53.5932
rhand 4.87501 -44.4962
rfingers 7.12502
rthumb 30.2507 -72.0378
lclavicle 1.31198e-014 -1.09332e-014
lhumerus 39.3706 -83.8382 50.4879
lradius 60.4652
lwrist 0.340835
lhand -18.7667 -14.543
lfingers 7.12502
lthumb 7.53031 15.303
rfemur -47.8979 -1.98106 5.60586
rtibia 59.5367
rfoot -22.6841 -10.346
rtoes -8.52187
lfemur -52.7811 5.35483 -21.0522
ltibia 62.2279
lfoot -20.4853 -3.86673
ltoes 1.03861
